HIERARCHY
ROOT Hips
{
	OFFSET -3.958830 18.904000 13.208200
	CHANNELS 6 Xposition Yposition Zposition Zrotation Yrotation Xrotation 
	JOINT LHipJoint
	{
		OFFSET 0.000000 0.000000 0.000000
		CHANNELS 3 Zrotation Yrotation Xrotation
		JOINT LeftUpLeg
		{
			OFFSET 1.800000 -1.400000 0.085000
			CHANNELS 3 Zrotation Yrotation Xrotation
			JOINT LeftLeg
			{
				OFFSET 2.215000 -6.000000 0.000000
				CHANNELS 3 Zrotation Yrotation Xrotation
				JOINT LeftFoot
				{
					OFFSET 2.500000 -6.900000 0.000000
					CHANNELS 3 Zrotation Yrotation Xrotation
					JOINT LeftToeBase
					{
						OFFSET 0.200000 -0.500000 1.950000
						CHANNELS 3 Zrotation Yrotation Xrotation
						End Site
						{
							OFFSET 0.000000 0.000000 0.000000
						}
					}
				}
			}
		}
	}
	JOINT RHipJoint
	{
		OFFSET 0.000000 0.000000 0.000000
		CHANNELS 3 Zrotation Yrotation Xrotation
		JOINT RightUpLeg
		{
			OFFSET -1.800000 -1.400000 0.085000
			CHANNELS 3 Zrotation Yrotation Xrotation
			JOINT RightLeg
			{
				OFFSET -2.215000 -6.000000 0.000000
				CHANNELS 3 Zrotation Yrotation Xrotation
				JOINT RightFoot
				{
					OFFSET -2.500000 -6.900000 0.000000
					CHANNELS 3 Zrotation Yrotation Xrotation
					JOINT RightToeBase
					{
						OFFSET -0.200000 -0.500000 1.950000
						CHANNELS 3 Zrotation Yrotation Xrotation
						End Site
						{
							OFFSET 0.000000 0.000000 0.000000
						}
					}
				}
			}
		}
	}
	JOINT LowerBack
	{
		OFFSET 0.000000 0.000000 0.000000
		CHANNELS 3 Zrotation Yrotation Xrotation
		JOINT Spine
		{
			OFFSET -0.087000 1.940000 -0.288900
			CHANNELS 3 Zrotation Yrotation Xrotation
			JOINT Spine1
			{
				OFFSET 0.000000 1.950000 0.060000
				CHANNELS 3 Zrotation Yrotation Xrotation
				JOINT Neck
				{
					OFFSET 0.000000 0.000000 0.000000
					CHANNELS 3 Zrotation Yrotation Xrotation
					JOINT Neck1
					{
						OFFSET 0.000000 1.600000 0.340000
						CHANNELS 3 Zrotation Yrotation Xrotation
						JOINT Head
						{
							OFFSET 0.000000 1.667000 -0.240000
							CHANNELS 3 Zrotation Yrotation Xrotation
							End Site
							{
								OFFSET 0.000000 0.000000 0.000000
							}
						}
					}
				}
				JOINT LeftShoulder
				{
					OFFSET 0.000000 0.000000 0.000000
					CHANNELS 3 Zrotation Yrotation Xrotation
					JOINT LeftArm
					{
						OFFSET 2.700000 1.550000 -0.730000
						CHANNELS 3 Zrotation Yrotation Xrotation
						JOINT LeftForeArm
						{
							OFFSET 5.450000 0.000000 0.000000
							CHANNELS 3 Zrotation Yrotation Xrotation
							JOINT LeftHand
							{
								OFFSET 3.450000 0.000000 0.000000
								CHANNELS 3 Zrotation Yrotation Xrotation
								JOINT LeftHandIndex1
								{
									OFFSET 0.750000 0.000000 0.000000
									CHANNELS 3 Zrotation Yrotation Xrotation
									End Site
									{
										OFFSET 0.000000 0.000000 0.000000
									}
								}
							}
						}
					}
				}
				JOINT RightShoulder
				{
					OFFSET 0.000000 0.000000 0.000000
					CHANNELS 3 Zrotation Yrotation Xrotation
					JOINT RightArm
					{
						OFFSET -2.700000 1.550000 -0.730000
						CHANNELS 3 Zrotation Yrotation Xrotation
						JOINT RightForeArm
						{
							OFFSET -5.450000 0.000000 0.000000
							CHANNELS 3 Zrotation Yrotation Xrotation
							JOINT RightHand
							{
								OFFSET -3.450000 0.000000 0.000000
								CHANNELS 3 Zrotation Yrotation Xrotation
								JOINT RightHandIndex1
								{
									OFFSET -0.750000 0.000000 0.000000
									CHANNELS 3 Zrotation Yrotation Xrotation
									End Site
									{
										OFFSET 0.000000 0.000000 0.000000
									}
								}
							}
						}
					}
				}
			}
		}
	}
}
MOTION
Frames: 7
Frame Time: 0.016667
-0.195260 13.370200 -2.998160 -58.375188 28.184766 -53.628013 -15.688736 12.340903 6.000531 2.368428 -14.001810 -33.097579 -29.760929 24.592487 49.119927 1.494694 12.742235 0.327679 0.133480 -0.111280 0.243790 17.922977 -9.818945 1.889083 -3.421549 5.087810 -18.697297 -35.609994 10.455564 50.825175 -1.641323 -8.889966 1.395639 -0.038590 0.247130 0.073460 -2.151893 -4.059922 -8.445322 0.174219 3.081820 59.231757 -1.539357 5.093378 21.564268 4.672675 9.361796 -18.201105 14.609544 -4.017863 47.427248 12.090750 -1.125260 -10.379400 -14.457493 -29.129428 11.623680 -20.706022 -2.695235 -2.890991 16.932216 -2.755184 -1.892178 -3.889546 2.591701 0.718880 -0.005940 0.096410 -0.007050 3.268026 24.908854 13.129940 8.070306 -17.276315 -17.535002 -48.330134 9.788558 -7.272532 2.646161 -1.590201 -0.339900 0.410230 0.163540 -0.235760 
-0.171080 13.352520 -3.027680 -59.602640 27.675053 -55.074009 -15.623568 12.420788 5.794917 1.960399 -13.287841 -30.758154 -27.529082 24.166390 50.491642 1.521239 12.677554 0.346340 0.177300 -0.038130 0.284180 17.955051 -9.937634 1.969529 -3.724901 5.483326 -19.898023 -31.086112 8.683850 55.482245 -1.657376 -8.999501 1.351278 -0.018880 0.182960 0.064620 -2.374416 -3.714494 -8.443382 2.845578 1.117197 60.447212 -3.216880 4.170827 21.558366 5.176746 9.728053 -18.673256 15.418863 -4.321622 48.150463 10.657590 -0.462210 -10.740540 -16.006069 -30.014239 11.960625 -18.809691 -1.349180 -3.182704 16.765160 -2.907080 -1.794341 -3.850906 2.610489 0.708310 -0.035310 0.141150 0.006180 3.833138 25.060345 13.000903 7.022635 -17.112881 -17.353793 -47.805360 9.633107 -7.087027 2.698574 -1.611675 -0.301920 0.387280 0.106660 -0.231740 
-0.148020 13.377020 -3.041800 -60.143608 27.273894 -57.270495 -15.591540 12.618237 5.479078 1.188084 -12.162047 -28.121797 -24.448887 22.729963 50.603182 1.384726 12.251175 0.415810 0.224860 -0.002950 0.356160 17.952948 -9.963645 2.129385 -4.339253 6.656261 -20.279684 -24.980798 5.760063 64.669432 -1.836468 -9.745810 1.085023 -0.020120 0.104740 0.123660 -2.471033 -3.669848 -8.400715 4.087441 0.514213 62.557046 -3.978954 3.813695 21.996166 5.428410 10.438148 -19.142163 17.006326 -4.883480 49.273162 9.333750 0.535950 -12.286030 -17.348909 -30.991079 12.172613 -16.927677 -0.581816 -3.396395 17.146028 -2.112250 -1.736821 -3.880056 2.639195 0.742150 -0.062020 0.204000 -0.025310 4.565548 25.307973 12.961802 6.021460 -17.145743 -17.212539 -47.081134 9.183935 -6.678797 2.737746 -1.617210 -0.250500 0.324350 0.094960 -0.258290 
-0.118760 13.392930 -3.060920 -61.457335 27.013618 -59.566333 -15.561146 12.754006 5.049929 -0.116398 -11.118618 -26.273206 -19.614245 19.741554 49.784005 1.101710 11.282802 0.645713 0.293830 0.048190 0.432460 17.970516 -9.850414 2.445376 -6.688955 8.486590 -21.564262 -16.517522 -1.301678 77.963689 -2.186025 -11.218716 0.621766 -0.008230 0.029190 0.184550 -2.599341 -3.656141 -8.431866 6.226131 -0.897747 64.298895 -5.126894 2.645858 22.340649 5.958953 11.166666 -19.443417 18.787872 -5.368353 50.015664 8.186900 1.390930 -13.447150 -18.830693 -31.804401 12.350214 -15.110014 0.427709 -3.621296 17.240040 -1.881500 -1.721468 -3.896983 2.698218 0.763130 -0.084690 0.255370 -0.042880 4.961975 25.099776 12.639749 5.338898 -16.287674 -17.307714 -47.400855 9.452563 -6.843123 2.730193 -1.659100 -0.192890 0.251640 0.069160 -0.281840 
-0.097230 13.383050 -3.068340 -61.410785 25.802530 -60.368917 -15.580035 12.602616 4.641261 -0.559091 -10.133612 -26.469809 -15.831713 18.424398 50.888850 0.979200 10.979265 0.711365 0.305360 0.062700 0.407710 18.006588 -9.293911 3.058619 -10.374970 10.989759 -24.135022 -5.450689 -13.611709 87.157139 -2.601483 -13.080053 0.110473 0.008030 0.035770 0.209190 -2.652793 -3.781685 -8.680580 7.674275 -1.584044 64.712901 -6.151046 2.238463 22.940845 6.829393 11.018888 -19.588070 18.498779 -4.828086 50.677508 7.345540 1.587570 -12.426680 -19.936022 -32.066556 12.393051 -14.332709 1.269369 -3.591152 17.035461 -1.750889 -1.671549 -3.931641 2.740359 0.741100 -0.063000 0.241160 -0.033650 4.343613 25.492884 12.453681 5.194180 -15.486883 -17.847413 -48.395603 10.157105 -7.382031 2.714258 -1.722980 -0.176820 0.225160 0.078830 -0.274190 
-0.093400 13.355090 -3.055000 -60.783505 24.880358 -60.233975 -15.614489 12.052367 4.344539 -2.241631 -10.321918 -28.692064 -10.900209 17.422267 55.376705 1.017293 11.188054 0.633512 0.332100 0.102900 0.364220 18.094829 -8.388497 3.952577 -15.630957 13.254604 -27.087050 7.196430 -29.168496 91.617426 -3.291453 -15.776128 -0.533788 0.037700 0.051630 0.221210 -2.734179 -3.850603 -9.115137 8.466037 -2.089566 63.852818 -7.061106 1.914695 23.668235 7.570952 9.787460 -19.181335 15.741463 -3.837531 51.490541 7.812840 0.474130 -11.116840 -19.599774 -31.227380 12.055111 -15.186786 1.038295 -3.357872 16.923146 -1.379668 -1.592582 -3.931688 2.811575 0.690040 -0.052210 0.211770 -0.010850 2.804494 25.534529 12.339560 5.411099 -13.833476 -18.090942 -48.969971 10.821073 -7.897985 2.690338 -1.797280 -0.144330 0.197170 0.077910 -0.239040 
-0.093750 13.238620 -3.028650 -62.056002 21.783301 -59.580198 -15.532008 11.200607 4.107469 -2.465742 -10.642321 -32.991075 -4.794296 15.562023 61.353936 1.045940 11.610509 0.541160 0.309180 0.086490 0.267560 18.307528 -7.517821 4.982814 -18.960117 15.099675 -30.313195 22.039608 -45.283162 89.556395 -3.918783 -17.838586 -0.885437 0.054980 0.163580 0.196060 -3.186093 -3.283501 -9.601803 13.835062 -6.115106 61.173496 -9.962522 0.561058 22.973448 8.933762 7.345476 -17.618328 10.806299 -1.610836 51.629092 8.549710 -0.835930 -9.769210 -19.522681 -28.409551 10.913604 -17.640527 0.294787 -3.158312 17.484139 -2.032837 -1.667472 -3.924324 2.818937 0.646470 -0.009490 0.137220 0.043730 0.810663 23.539139 11.673412 4.170000 -9.708037 -16.829653 -48.011128 12.802689 -8.405031 2.527436 -1.760170 -0.178350 0.267270 0.105470 -0.190260 
